<svg width="300" height="100" viewBox="0 0 300 100" xmlns="http://www.w3.org/2000/svg">
  <!-- Gradient Definition for Icon -->
  <defs>
    <linearGradient id="iconGradient" x1="0%" y1="0%" x2="100%" y2="100%">
      <stop offset="0%" style="stop-color:#ff7e5f; stop-opacity:1"/> <!-- Orange -->
      <stop offset="100%" style="stop-color:#009688; stop-opacity:1"/> <!-- Teal -->
    </linearGradient>
  </defs>

  <!-- Circular Icon Background -->
  <circle cx="50" cy="50" r="40" fill="url(#iconGradient)"/>

  <!-- Dream Icon (Stylized Moon + Cloud) -->
  <path d="M65 35c-8 0-14-6-14-14 0-3 1-5 2-7-12 2-22 13-22 27 0 14 11 25 25 25 13 0 23-9 25-22-2 2-5 2-7 2z" fill="white"/>
  <path d="M35 65c0-10 8-18 18-18 4 0 8 2 10 4 3-6 9-9 15-9 11 0 18 8 18 18 0 1 0 2-1 3 3 3 5 6 5 10 0 7-6 12-12 12H40c-5 0-8-3-8-8s3-8 8-8h2c-1-2-2-4-2-6z" fill="white"/>

  <!-- Glyph Element (Stylized 'G') -->
  <path d="M50 75c0-15 15-30 30-30v8c-12 0-22 10-22 22h22v8H50z" fill="white"/>

  <!-- Text: DreamGlyph -->
  <text x="110" y="60" font-family="Arial, sans-serif" font-size="32" font-weight="bold" fill="black">DreamGlyph</text>
</svg>
